<svg width="2779.18806" height="408.14132" viewBox="0 0 735.32684 107.98739" version="1.1" id="svg8332" xmlns="http://www.w3.org/2000/svg"><defs id="defs8329"><linearGradient x1="0" y1="0" x2="1" y2="0" gradientUnits="userSpaceOnUse" gradientTransform="matrix(0 138.13518 138.13518 0 36.36417 3.64016)" spreadMethod="pad" id="linearGradient425"><stop style="stop-opacity:1;stop-color:#29a6fe" offset="0" id="stop417"/><stop style="stop-opacity:1;stop-color:#29a6fe" offset=".25077" id="stop419"/><stop style="stop-opacity:1;stop-color:#2988fe" offset=".99438" id="stop421"/><stop style="stop-opacity:1;stop-color:#2988fe" offset="1" id="stop423"/></linearGradient><linearGradient x1="0" y1="0" x2="1" y2="0" gradientUnits="userSpaceOnUse" gradientTransform="matrix(0 138.13518 138.13518 0 254.64928 3.64016)" spreadMethod="pad" id="linearGradient461"><stop style="stop-opacity:1;stop-color:#29a6fe" offset="0" id="stop453"/><stop style="stop-opacity:1;stop-color:#29a6fe" offset=".25077" id="stop455"/><stop style="stop-opacity:1;stop-color:#2988fe" offset=".99438" id="stop457"/><stop style="stop-opacity:1;stop-color:#2988fe" offset="1" id="stop459"/></linearGradient><linearGradient x1="0" y1="0" x2="1" y2="0" gradientUnits="userSpaceOnUse" gradientTransform="matrix(0 138.13518 138.13518 0 374.47089 3.64016)" spreadMethod="pad" id="linearGradient497"><stop style="stop-opacity:1;stop-color:#29a6fe" offset="0" id="stop489"/><stop style="stop-opacity:1;stop-color:#29a6fe" offset=".25077" id="stop491"/><stop style="stop-opacity:1;stop-color:#2988fe" offset=".99438" id="stop493"/><stop style="stop-opacity:1;stop-color:#2988fe" offset="1" id="stop495"/></linearGradient><linearGradient x1="0" y1="0" x2="1" y2="0" gradientUnits="userSpaceOnUse" gradientTransform="matrix(0 138.13518 138.13518 0 525.06903 3.64016)" spreadMethod="pad" id="linearGradient533"><stop style="stop-opacity:1;stop-color:#29a6fe" offset="0" id="stop525"/><stop style="stop-opacity:1;stop-color:#29a6fe" offset=".25077" id="stop527"/><stop style="stop-opacity:1;stop-color:#2988fe" offset=".99438" id="stop529"/><stop style="stop-opacity:1;stop-color:#2988fe" offset="1" id="stop531"/></linearGradient><linearGradient x1="0" y1="0" x2="1" y2="0" gradientUnits="userSpaceOnUse" gradientTransform="matrix(0 138.13518 138.13518 0 678.00317 3.64016)" spreadMethod="pad" id="linearGradient569"><stop style="stop-opacity:1;stop-color:#29a6fe" offset="0" id="stop561"/><stop style="stop-opacity:1;stop-color:#29a6fe" offset=".25077" id="stop563"/><stop style="stop-opacity:1;stop-color:#2988fe" offset=".99438" id="stop565"/><stop style="stop-opacity:1;stop-color:#2988fe" offset="1" id="stop567"/></linearGradient><linearGradient x1="0" y1="0" x2="1" y2="0" gradientUnits="userSpaceOnUse" gradientTransform="matrix(0 138.13518 138.13518 0 834.81396 3.64016)" spreadMethod="pad" id="linearGradient605"><stop style="stop-opacity:1;stop-color:#29a6fe" offset="0" id="stop597"/><stop style="stop-opacity:1;stop-color:#29a6fe" offset=".25077" id="stop599"/><stop style="stop-opacity:1;stop-color:#2988fe" offset=".99438" id="stop601"/><stop style="stop-opacity:1;stop-color:#2988fe" offset="1" id="stop603"/></linearGradient><linearGradient x1="0" y1="0" x2="1" y2="0" gradientUnits="userSpaceOnUse" gradientTransform="matrix(0 138.13518 138.13518 0 970.81732 3.64016)" spreadMethod="pad" id="linearGradient641"><stop style="stop-opacity:1;stop-color:#29a6fe" offset="0" id="stop633"/><stop style="stop-opacity:1;stop-color:#29a6fe" offset=".25077" id="stop635"/><stop style="stop-opacity:1;stop-color:#2988fe" offset=".99438" id="stop637"/><stop style="stop-opacity:1;stop-color:#2988fe" offset="1" id="stop639"/></linearGradient><linearGradient x1="0" y1="0" x2="1" y2="0" gradientUnits="userSpaceOnUse" gradientTransform="matrix(0 138.13518 138.13518 0 1138.9478 3.64016)" spreadMethod="pad" id="linearGradient677"><stop style="stop-opacity:1;stop-color:#29a6fe" offset="0" id="stop669"/><stop style="stop-opacity:1;stop-color:#29a6fe" offset=".25077" id="stop671"/><stop style="stop-opacity:1;stop-color:#2988fe" offset=".99438" id="stop673"/><stop style="stop-opacity:1;stop-color:#2988fe" offset="1" id="stop675"/></linearGradient><linearGradient x1="0" y1="0" x2="1" y2="0" gradientUnits="userSpaceOnUse" gradientTransform="matrix(0 138.13518 138.13518 0 1304.4969 3.64016)" spreadMethod="pad" id="linearGradient713"><stop style="stop-opacity:1;stop-color:#29a6fe" offset="0" id="stop705"/><stop style="stop-opacity:1;stop-color:#29a6fe" offset=".25077" id="stop707"/><stop style="stop-opacity:1;stop-color:#2988fe" offset=".99438" id="stop709"/><stop style="stop-opacity:1;stop-color:#2988fe" offset="1" id="stop711"/></linearGradient><linearGradient x1="0" y1="0" x2="1" y2="0" gradientUnits="userSpaceOnUse" gradientTransform="matrix(0 138.13518 138.13518 0 1443.3683 3.64016)" spreadMethod="pad" id="linearGradient749"><stop style="stop-opacity:1;stop-color:#29a6fe" offset="0" id="stop741"/><stop style="stop-opacity:1;stop-color:#29a6fe" offset=".25077" id="stop743"/><stop style="stop-opacity:1;stop-color:#2988fe" offset=".99438" id="stop745"/><stop style="stop-opacity:1;stop-color:#2988fe" offset="1" id="stop747"/></linearGradient><linearGradient x1="0" y1="0" x2="1" y2="0" gradientUnits="userSpaceOnUse" gradientTransform="matrix(0 138.13518 138.13518 0 1585.2095 3.64016)" spreadMethod="pad" id="linearGradient785"><stop style="stop-opacity:1;stop-color:#29a6fe" offset="0" id="stop777"/><stop style="stop-opacity:1;stop-color:#29a6fe" offset=".25077" id="stop779"/><stop style="stop-opacity:1;stop-color:#2988fe" offset=".99438" id="stop781"/><stop style="stop-opacity:1;stop-color:#2988fe" offset="1" id="stop783"/></linearGradient><linearGradient x1="0" y1="0" x2="1" y2="0" gradientUnits="userSpaceOnUse" gradientTransform="matrix(0 138.13518 138.13518 0 1658.0776 3.64016)" spreadMethod="pad" id="linearGradient821"><stop style="stop-opacity:1;stop-color:#29a6fe" offset="0" id="stop813"/><stop style="stop-opacity:1;stop-color:#29a6fe" offset=".25077" id="stop815"/><stop style="stop-opacity:1;stop-color:#2988fe" offset=".99438" id="stop817"/><stop style="stop-opacity:1;stop-color:#2988fe" offset="1" id="stop819"/></linearGradient><linearGradient x1="0" y1="0" x2="1" y2="0" gradientUnits="userSpaceOnUse" gradientTransform="matrix(0 138.13518 138.13518 0 1734.3412 3.64016)" spreadMethod="pad" id="linearGradient857"><stop style="stop-opacity:1;stop-color:#29a6fe" offset="0" id="stop849"/><stop style="stop-opacity:1;stop-color:#29a6fe" offset=".25077" id="stop851"/><stop style="stop-opacity:1;stop-color:#2988fe" offset=".99438" id="stop853"/><stop style="stop-opacity:1;stop-color:#2988fe" offset="1" id="stop855"/></linearGradient><linearGradient x1="0" y1="0" x2="1" y2="0" gradientUnits="userSpaceOnUse" gradientTransform="matrix(0 138.13518 138.13518 0 1819.8521 3.64016)" spreadMethod="pad" id="linearGradient893"><stop style="stop-opacity:1;stop-color:#29a6fe" offset="0" id="stop885"/><stop style="stop-opacity:1;stop-color:#29a6fe" offset=".25077" id="stop887"/><stop style="stop-opacity:1;stop-color:#2988fe" offset=".99438" id="stop889"/><stop style="stop-opacity:1;stop-color:#2988fe" offset="1" id="stop891"/></linearGradient><linearGradient x1="0" y1="0" x2="1" y2="0" gradientUnits="userSpaceOnUse" gradientTransform="matrix(0 138.13518 138.13518 0 1905.4694 3.64016)" spreadMethod="pad" id="linearGradient929"><stop style="stop-opacity:1;stop-color:#29a6fe" offset="0" id="stop921"/><stop style="stop-opacity:1;stop-color:#29a6fe" offset=".25077" id="stop923"/><stop style="stop-opacity:1;stop-color:#2988fe" offset=".99438" id="stop925"/><stop style="stop-opacity:1;stop-color:#2988fe" offset="1" id="stop927"/></linearGradient><linearGradient x1="0" y1="0" x2="1" y2="0" gradientUnits="userSpaceOnUse" gradientTransform="matrix(0 138.13518 138.13518 0 2011.4685 3.64016)" spreadMethod="pad" id="linearGradient965"><stop style="stop-opacity:1;stop-color:#29a6fe" offset="0" id="stop957"/><stop style="stop-opacity:1;stop-color:#29a6fe" offset=".25077" id="stop959"/><stop style="stop-opacity:1;stop-color:#2988fe" offset=".99438" id="stop961"/><stop style="stop-opacity:1;stop-color:#2988fe" offset="1" id="stop963"/></linearGradient><linearGradient x1="0" y1="0" x2="1" y2="0" gradientUnits="userSpaceOnUse" gradientTransform="matrix(77.13573 0 0 -77.13573 1573.1101 90.8232)" spreadMethod="pad" id="linearGradient337"><stop style="stop-opacity:1;stop-color:#ffb724" offset="0" id="stop329"/><stop style="stop-opacity:1;stop-color:#ffb724" offset=".25077" id="stop331"/><stop style="stop-opacity:1;stop-color:#ffde00" offset=".99438" id="stop333"/><stop style="stop-opacity:1;stop-color:#ffde00" offset="1" id="stop335"/></linearGradient><linearGradient x1="0" y1="0" x2="1" y2="0" gradientUnits="userSpaceOnUse" gradientTransform="matrix(1615.5 0 0 -1615.5 -1.35891 190.69591)" spreadMethod="pad" id="linearGradient313"><stop style="stop-opacity:1;stop-color:#ffb724" offset="0" id="stop305"/><stop style="stop-opacity:1;stop-color:#ffb724" offset=".25077" id="stop307"/><stop style="stop-opacity:1;stop-color:#ffde00" offset=".99438" id="stop309"/><stop style="stop-opacity:1;stop-color:#ffde00" offset="1" id="stop311"/></linearGradient><clipPath clipPathUnits="userSpaceOnUse" id="clipPath223"><path d="M0 2501h2086.968V0H0Z" id="path221"/></clipPath><clipPath clipPathUnits="userSpaceOnUse" id="clipPath347"><path d="M0 2501h2086.968V0H0Z" id="path345"/></clipPath><clipPath clipPathUnits="userSpaceOnUse" id="clipPath411"><path d="M18.3044 53.8753h36.1195v-32.391H18.3044Z" id="path409"/></clipPath><clipPath clipPathUnits="userSpaceOnUse" id="clipPath447"><path d="M187.855 95.9808h133.588v-78.521H187.855Z" id="path445"/></clipPath><clipPath clipPathUnits="userSpaceOnUse" id="clipPath483"><path d="M356.379 103.318h36.184V21.1976h-36.184z" id="path481"/></clipPath><clipPath clipPathUnits="userSpaceOnUse" id="clipPath519"><path d="M507.148 115.456h35.842V20.9108h-35.842z" id="path517"/></clipPath><clipPath clipPathUnits="userSpaceOnUse" id="clipPath555"><path d="M610.159 125.837h135.688V17.4598H610.159Z" id="path553"/></clipPath><clipPath clipPathUnits="userSpaceOnUse" id="clipPath591"><path d="M775.028 130.019H894.6V19.7543H775.028Z" id="path589"/></clipPath><clipPath clipPathUnits="userSpaceOnUse" id="clipPath627"><path d="M918.405 131.36h104.825V21.1976H918.405Z" id="path625"/></clipPath><clipPath clipPathUnits="userSpaceOnUse" id="clipPath663"><path d="M1054.42 131.369h169.06V21.4843h-169.06z" id="path661"/></clipPath><clipPath clipPathUnits="userSpaceOnUse" id="clipPath699"><path d="M1256.99 128.622h95.02V21.1976h-95.02z" id="path697"/></clipPath><clipPath clipPathUnits="userSpaceOnUse" id="clipPath735"><path d="M1375.52 124.273h135.69V17.4598h-135.69z" id="path733"/></clipPath><clipPath clipPathUnits="userSpaceOnUse" id="clipPath771"><path d="M1540.4 115.391h89.62V21.7712h-89.62z" id="path769"/></clipPath><clipPath clipPathUnits="userSpaceOnUse" id="clipPath807"><path d="M1637.77 106.121h40.62V21.7712h-40.62z" id="path805"/></clipPath><clipPath clipPathUnits="userSpaceOnUse" id="clipPath843"><path d="M1716.21 101.217h36.26V21.1976h-36.26z" id="path841"/></clipPath><clipPath clipPathUnits="userSpaceOnUse" id="clipPath879"><path d="M1801.92 91.7804h35.87V21.1976h-35.87z" id="path877"/></clipPath><clipPath clipPathUnits="userSpaceOnUse" id="clipPath915"><path d="M1887.69 80.2803h35.56V21.1976h-35.56z" id="path913"/></clipPath><clipPath clipPathUnits="userSpaceOnUse" id="clipPath951"><path d="M1956.75 58.4735h109.44V18.607h-109.44z" id="path949"/></clipPath></defs><g id="layer1" transform="matrix(.35278 0 0 -.35278 -.45448 107.98746)"><g id="g217" style="display:inline"><g id="g219" clip-path="url(#clipPath223)"><g id="g285" transform="translate(2078.7754 91.0195)"><path d="M0 0c-4.726 8.363-10.865 14.424-18.25 18.014-1.407.701-2.822 1.375-4.243 2.019 5.47 1.981 10.466 6.533 14.912 13.604C-2.288 42.053.284 49.348.284 55.94c0 6.08-2.76 14.587-15.943 20.619C-31.287 83.641-46.81 87.23-61.796 87.23c-23.198 0-40.442-4.345-52.718-13.283-13.087-9.529-19.722-23.72-19.722-42.176 0-11.685 2.189-22.035 6.5-30.75 3.465-7.035 7.797-12.736 12.942-17.031-4.999-1.312-9.115-4.189-11.928-8.42-5.852-8.173-9.585-14.942-11.394-20.721v43.542c0 30.029-5.897 51.342-18.029 65.16-12.295 13.994-27.792 21.09-46.061 21.09-8.649 0-17.103-2.334-25.125-6.936-7.27-4.17-12.596-8.06-16.244-11.861-11.089 12.485-25.962 18.797-44.381 18.797-10.539 0-20.049-3.561-28.42-10.618-.535.701-1.105 1.373-1.712 2.016-5.36 5.671-14.346 8.312-28.278 8.312-14.554 0-24.355-4.322-29.132-12.843-2.154-3.762-3.481-7.446-3.943-10.956-.347-2.64-.515-6.314-.515-11.232V-51.959c0-5.205.166-8.837.522-11.427.432-3.153 1.506-6.541 3.287-10.354.059-.127.122-.254.187-.379 6.836-13.16 25.049-13.16 31.034-13.16 5.917 0 23.924 0 31.109 12.494.051.09.101.18.149.27 2.128 3.979 3.382 7.586 3.843 11.077.342 2.702.509 6.362.509 11.188v50.93c0 8.183 1.595 11.718 2.545 13.097.5.723 1.334 1.934 4.715 1.934 2.933 0 7.84 0 7.84-15.031v-50.35c0-4.93.169-8.605.515-11.23.43-3.28 1.514-6.739 3.31-10.573.035-.074.071-.148.107-.221 4.499-9.015 14.962-13.585 31.098-13.585 6.049 0 24.441-.001 31.296 13.107 2.098 3.943 3.338 7.471 3.791 10.78.357 2.596.523 6.228.523 11.433v50.35c0 7.884 1.296 11.921 2.385 13.92.629 1.157 3.004 1.4 4.885 1.4 2.933 0 7.84 0 7.84-15.031v-50.35c0-4.93.169-8.605.515-11.23.428-3.261 1.504-6.711 3.289-10.547.04-.088.082-.174.125-.26 4.511-9.006 14.975-13.572 31.101-13.572 6.076 0 24.497 0 31.054 13.215 2.076 3.905 3.304 7.463 3.75 10.867.112.851.203 1.824.278 2.9 1.513-4.996 4.609-9.107 9.083-11.928 18.61-11.708 38.358-17.644 58.695-17.644 19.956 0 36.964 3.338 50.551 9.92.071.035.141.07.213.106C-11.281-75.456-4.576-68.771.114-59.982c4.506 8.433 6.79 18.584 6.79 30.172C6.904-18.139 4.581-8.109 0 0" style="fill:#000;fill-opacity:1;fill-rule:nonzero;stroke:none" id="path287"/></g><g id="g289" transform="translate(1369.2383 164.2852)"><path d="M0 0c-3.622 4.195-8.204 7.189-13.624 8.902-4.085 1.287-7.963 2.223-11.53 2.783-3.616.565-7.84.84-12.914.84-6.281 0-12.983-2.004-20.486-6.121-2.904-1.59-5.347-3.028-7.4-4.361-5.289 6.078-14.608 9.042-28.364 9.042-6.062 0-24.506 0-31.323-13.175-.016-.033-.033-.064-.049-.098-1.839-3.652-2.995-7.191-3.434-10.526-.347-2.64-.515-6.313-.515-11.231v-1.797c-3.624 24.345-14.832 45.575-33.465 63.289-22.938 21.776-49.943 32.818-80.212 32.818l-53.283.28c-6.048 0-24.435 0-31.284-13.092-2.115-3.966-3.358-7.514-3.793-10.797-.358-2.611-.533-6.351-.533-11.432v-37.99c-1.901 3.628-4.668 6.836-8.693 8.887-3.935 2.092-7.51 3.328-10.972 3.785-2.704.342-6.317.509-11.045.509-2.459 0-5.483-.113-9.13-.339v17.379c0 7.914-.603 13.527-1.897 17.664-.035.115-.073.228-.113.342-5.049 14.318-20.591 17.324-32.74 17.324-5.995 0-24.119 0-30.827-12.221-2.163-3.564-3.498-7.101-3.977-10.568-.348-2.631-.517-6.263-.517-11.102V10.512c-6.729-.098-12.55-2.108-17.31-5.98-.115-.094-.229-.19-.34-.289-3.201-2.85-5.482-6.878-6.975-12.296-.584.513-1.195 1.023-1.849 1.528-.125.095-.253.189-.383.281-1.945 1.357-4.639 3.181-8.235 5.58-.08.053-.16.103-.241.154l-4.599 2.88c-.087.055-.175.109-.264.159-4.027 2.354-9.746 4.598-17.5 6.867-7.798 2.269-15.904 3.418-24.094 3.418-20.259 0-39.485-7.12-57.071-21.105-9.036-7.05-16.469-16.391-22.09-27.758-1.468-2.965-2.743-6.026-3.834-9.174-1.55 9.47-5.058 18.445-10.523 26.809-14.391 21.678-36.944 32.669-67.032 32.669-25.895 0-47.884-8.208-65.355-24.394-6.241-5.782-11.372-12.273-15.431-19.42.098 1.597.147 3.271.147 5.034 0 7.076-.721 12.776-2.194 17.398-4.675 14.82-20.437 17.932-32.836 17.932-.308 0-.616-.014-.921-.043l-7.78-.719v2.041c.198.007.411.011.641.011h8.06c.219 0 .439.007.659.022 8.462.559 15.03 3.442 19.522 8.568.086.098.171.199.253.301 4.788 5.918 7.115 14.469 7.115 26.139 0 6.076-.001 24.506-13.227 31.07-3.92 2.067-7.472 3.287-10.862 3.735-2.641.346-6.314.515-11.23.515-22.85 0-40.767-7.191-53.258-21.375-12.157-13.816-18.322-29.544-18.322-46.746V9.07c-5.248-.088-14.33-1.599-20.369-10.049-.25.327-.484.667-.751.978-3.625 4.2-8.213 7.195-13.628 8.901-4.077 1.288-7.958 2.225-11.537 2.785-3.617.565-7.838.84-12.905.84-6.281 0-12.984-2.004-20.485-6.121-2.904-1.59-5.347-3.027-7.401-4.359-5.289 6.077-14.608 9.04-28.364 9.04-6.057 0-24.489 0-31.325-13.161-.024-.045-.048-.092-.07-.137-1.873-3.748-2.99-7.195-3.41-10.501-.347-2.643-.516-6.317-.516-11.231v-19.239c-1.701 8.721-5.087 17.007-10.156 24.766-14.381 21.68-36.934 32.673-67.033 32.673-25.9 0-47.886-8.208-65.344-24.392-5.016-4.644-9.306-9.755-12.914-15.285.302 3.085.461 6.229.461 9.433 0 13.911-2.855 26.787-8.486 38.271-1.417 2.887-2.985 5.652-4.663 8.3 1.283.439 2.553.88 3.856 1.319 30.244 10.172 63.087 19.261 100.399 27.787 32.505 7.406 66.095 13.859 102.686 19.722 65.527 10.479 133.636 18.039 208.213 23.113 63.869 4.329 130.343 6.523 197.577 6.523 3.999 0 8-.008 12.003-.023 70.896-.236 141.284-3.252 209.206-8.96 71.876-6.051 141.62-15.068 207.289-26.799 35.446-6.348 69.765-13.518 102-21.311 36.281-8.787 68.903-18.041 99.718-28.285 9.651-3.222 18.888-6.464 27.765-9.739-22.208-1.634-41.282-9.7-56.779-24.066-3.54-3.277-6.713-6.789-9.553-10.509.005.243.026.49.026.731C6.031-11.217 4.06-4.703 0 0m-212.74-76.586c-9.298-8.579-19.317-12.75-30.629-12.75h-17.91V-.565h17.631c11.99 0 22.188-4.213 31.175-12.876 8.885-8.574 13.204-18.973 13.204-31.794 0-12.732-4.406-22.987-13.471-31.351m-463.949 21.49H-695.5c3.627 2.616 7.02 3.891 10.321 3.891 3.764 0 6.66-.656 8.129-1.828.685-.551 1.1-1.065 1.239-2.035-.251-.016-.542-.028-.878-.028m-441.78 0c3.627 2.616 7.019 3.891 10.32 3.891 3.764 0 6.66-.656 8.128-1.827.69-.555 1.109-1.07 1.249-2.035-.253-.017-.548-.029-.888-.029zm-141.633 28.133c-3.799-2.881-7.36-4.281-10.89-4.281h-26.161v16.516c2.694 1.747 5.507 3.497 8.461 5.262 5.689 3.389 11.655 6.681 17.924 9.915.92-.612 1.948-1.083 3.06-1.367 2.478-.633 5.009-1.941 7.517-3.885 1.911-1.484 4.453-4.259 4.453-11.186 0-6.869-2.49-9.552-4.364-10.974M88.322-53.042c.684-.548 1.099-1.06 1.238-2.025-.254-.017-.549-.029-.889-.029H69.867c3.621 2.616 7.016 3.891 10.324 3.891 3.758 0 6.651-.656 8.131-1.837M166.2-29.858c-3.141-5.121-5.685-10.472-7.627-16.033-1.411 9.169-4.663 17.878-9.73 26.03 6.177-3.338 11.944-6.66 17.357-9.997M322.821-1.672c-1.851 3.697-5.707 8.627-13.568 11.111-4.674 1.475-11.125 2.193-19.723 2.193-9.092 0-16.491-1.978-21.991-5.876-1.437-1.02-2.741-2.164-3.906-3.426-2.517 1.578-5.593 3.137-9.351 4.748-6.606 2.83-13.942 4.266-21.803 4.266-10.593 0-20.881-2.518-30.579-7.483-1.146-.587-2.144-1.382-2.965-2.322-11.898 7.694-24.941 14.976-40.355 22.55-29.387 14.33-61.496 26.859-101.064 39.434C25.428 73.67-8.413 82.738-45.942 91.248c-33.127 7.495-68.335 14.315-104.65 20.27-66.992 10.955-138.019 19.082-211.113 24.156-58.894 4.08-119.55 6.147-180.285 6.147-10.517 0-21.209-.061-31.773-.184-72.169-.806-143.385-4.082-211.672-9.737-75.351-6.259-144.156-14.943-210.354-26.546-37.06-6.51-71.082-13.575-104.012-21.598-37.982-9.278-71.433-19.08-102.272-29.969-4.4-1.558-8.677-3.116-12.856-4.677-.306.308-.634.598-.984.867-17.574 13.519-36.105 20.373-55.079 20.373h-61.416c-6.038 0-24.394.002-31.231-13.086-2.105-3.95-3.347-7.537-3.798-10.979-.345-2.656-.513-6.316-.513-11.189 0 0 .503-149.212.013-158.768-.01-.171-.013-.342-.013-.512 0-7.839.737-13.773 2.25-18.13 4.749-14.386 20.56-17.413 33.005-17.413 6.036 0 24.39.001 31.234 13.09 2.107 3.965 3.349 7.555 3.794 10.973.346 2.654.514 6.314.514 11.193v22.43h25.874c19.21 0 37.872 6.88 55.391 20.39 6.604 4.991 12.347 11.28 17.172 18.739-.458-4.054-.713-8.223-.713-12.533 0-21.365 6.798-40.939 20.205-58.18 7.119-9.342 17.083-16.902 29.622-22.473 12.255-5.432 26.347-8.187 41.883-8.187 21.972 0 38.269 2.346 49.822 7.173 17.743 7.413 21.468 19.555 21.468 28.436 0 5.201-1.547 10.947-4.728 17.564-.035.073-.071.145-.108.217-3.176 6.215-6.718 10.423-10.274 13.227 3.787 1.855 7.382 4.421 10.767 7.689 5.27 5.091 8.786 11.837 10.532 20.128v-63.434c0-.229.01-.456.024-.684.568-8.293 3.459-14.763 8.592-19.23.083-.072.168-.144.254-.213 5.9-4.801 14.457-7.133 26.161-7.133 5.911 0 23.897 0 31.101 12.481.054.093.107.188.157.284 2.129 3.98 3.383 7.589 3.842 11.077.343 2.707.51 6.366.51 11.187v60.42c0 1.557.369 3.297 3.049 5.465 2.737 2.215 5.355 3.246 8.241 3.246 4.516 0 6.925-.71 8.162-1.311 4.522-2.189 9.326-3.299 14.277-3.299 10.078 0 18.483 5.225 23.86 14.76 1.207-2.483 2.695-4.602 4.469-6.371.109-.108.218-.212.331-.315 3.84-3.495 9.277-5.466 16.622-6.025.252-.019.505-.029.758-.029h.351v-66.25c0-4.853.17-8.556.513-11.281.436-3.579 1.752-7.369 3.895-11.24 2.714-4.932 7.238-8.617 13.061-10.651 4.658-1.641 10.406-2.439 17.571-2.439 7.043 0 12.764.713 17.469 2.172 6.319 1.944 11.265 6.113 14.296 12.038 2.587 5.034 3.844 11.845 3.844 20.821v66.465l7.787-.486c.207-.013.415-.02.624-.02 9.54 0 16.908 1.566 22.492 4.768 1.451.825 2.767 1.815 3.976 2.932-1.67-7.292-2.518-15.06-2.518-23.299 0-21.354 6.798-40.926 20.206-58.18 7.133-9.349 17.096-16.908 29.621-22.473 12.255-5.432 26.349-8.187 41.892-8.187 21.973 0 38.27 2.346 49.823 7.173 17.743 7.413 21.467 19.555 21.467 28.436 0 5.201-1.546 10.947-4.727 17.564-.036.075-.074.151-.112.225-3.18 6.208-6.722 10.413-10.277 13.215 3.789 1.856 7.384 4.424 10.764 7.693 2.587 2.5 4.745 5.403 6.487 8.681.82-11.154 3.571-21.615 8.218-31.171 5.629-11.607 13.075-21.07 22.128-28.121 18.203-14.197 37.6-21.395 57.649-21.395 17.816 0 33.201 4.414 45.733 13.12 13.521 8.197 20.378 17.892 20.378 28.82 0 6.781-2.872 13.705-8.781 21.167-.025.032-.05.065-.077.097-10.495 12.926-19.634 18.945-28.762 18.945-5.415 0-11.258-2.23-18.4-7.027-3.615-2.438-7.341-3.622-11.39-3.622-3.645 0-7.144 1.447-10.69 4.418-1.923 1.616-4.48 4.548-4.48 11.342 0 6.745 2.69 9.75 4.713 11.424 3.747 3.1 7.546 4.606 11.617 4.606 3.754 0 6.425-.727 7.94-2.159.477-.449.996-.851 1.552-1.201 8.541-5.363 15.169-7.86 20.857-7.86 10.024 0 19.256 6.657 28.227 20.352.279.426.547.85.81 1.272.621-1.023 1.302-1.98 2.054-2.863 4.688-5.496 10.953-8.401 18.119-8.401.6 0 1.198.005 1.79.016v-31.736c0-24.413 6.385-42.343 18.974-53.292 12.178-10.603 29.682-15.978 52.026-15.978 4.722 0 8.301.168 10.949.516 3.262.429 6.71 1.506 10.541 3.287.088.042.178.085.266.129 9.001 4.517 13.565 14.98 13.565 31.097 0 5.286 0 21.369-11.662 27.964-3.83 2.188-7.659 3.525-11.378 3.974-2.797.338-6.579.503-11.56.503-.521 0-.936.024-1.256.057-.186.835-.394 2.289-.394 4.623v29.066l8.087-.497c.204-.013.408-.02.613-.02 4.866 0 8.539.172 11.193.521 3.258.415 6.721 1.494 10.587 3.299.127.059.254.122.378.186 4.185 2.173 7.035 5.498 8.982 9.213v-78.028c0-10.093 1.562-17.737 4.774-23.366l.103-.176c4.856-8.121 14.814-12.069 30.443-12.069h52.66c31.983 0 59.595 11.557 82.068 34.348 18.07 18.314 28.961 39.827 32.522 64.133v-71.5c0-.228.008-.455.024-.682.565-8.278 3.452-14.746 8.58-19.222.091-.079.182-.157.275-.232 5.909-4.794 14.463-7.124 26.152-7.124 5.917 0 23.92 0 31.107 12.494.052.089.102.18.15.271 2.128 3.978 3.382 7.586 3.837 11.034.347 2.639.515 6.312.515 11.23v60.42c0 1.557.369 3.297 3.04 5.458 2.749 2.22 5.371 3.253 8.25 3.253 4.517 0 6.926-.71 8.162-1.31 4.522-2.19 9.328-3.3 14.288-3.3 6.006 0 11.42 1.858 15.953 5.38-1.186-6.274-1.793-12.883-1.793-19.83 0-21.365 6.798-40.939 20.205-58.18 7.12-9.342 17.083-16.902 29.623-22.473 12.254-5.432 26.349-8.187 41.892-8.187 21.972 0 38.268 2.346 49.818 7.173 17.739 7.413 21.462 19.555 21.462 28.436 0 5.228-1.548 10.977-4.734 17.577-.033.069-.066.136-.102.204-3.174 6.213-6.715 10.42-10.27 13.224 3.789 1.856 7.384 4.423 10.764 7.692 2.659 2.57 4.864 5.567 6.63 8.96 1.514-19.763 9.466-37.466 23.737-52.694 16.112-17.204 34.128-25.928 53.546-25.928 13.242 0 24.174 2.884 32.677 8.598.977-1.009 2.046-1.938 3.205-2.783 5.433-3.967 13.991-5.815 26.931-5.815 14.382 0 23.986 4.29 28.542 12.75.092.171.179.345.261.521 1.797 3.859 2.876 7.315 3.3 10.561.346 2.659.515 6.334.515 11.237v100.847c0 4.897-.169 8.572-.515 11.237-.439 3.355-1.605 6.892-3.567 10.816" style="fill:#000;fill-opacity:1;fill-rule:nonzero;stroke:none" id="path291"/></g></g></g><g id="g293" style="display:inline"><g id="g295"><g id="g301"><g id="g303"><path d="M795.586 295.923c-70.412-.786-140.795-3.893-210.955-9.702-70.151-5.83-140.109-14.276-209.452-26.431-34.664-6.089-69.169-13.13-103.369-21.464-34.189-8.352-68.102-17.957-101.307-29.681-16.592-5.877-33.013-12.268-49.082-19.47-16.069-7.19-31.812-15.174-46.811-24.417-7.491-4.631-14.794-9.58-21.746-14.994-6.944-5.417-13.585-11.254-19.551-17.746-5.959-6.478-11.3-13.597-15.275-21.468-1.985-3.93-3.64-8.031-4.823-12.27-1.167-4.242-1.877-8.606-2.074-12.995.263 4.386 1.038 8.732 2.264 12.941 1.242 4.207 2.951 8.264 4.983 12.143 4.071 7.77 9.483 14.763 15.501 21.111 6.024 6.36 12.711 12.065 19.694 17.344 6.991 5.279 14.327 10.092 21.846 14.586 15.056 8.97 30.839 16.682 46.941 23.6 16.105 6.928 32.55 13.048 49.162 18.654 33.243 11.182 67.174 20.247 101.365 28.058 34.201 7.794 68.692 14.296 103.327 19.848 69.285 11.08 139.131 18.454 209.117 23.216 69.995 4.742 140.157 6.788 210.29 6.521 70.128-.233 140.195-3.126 210.012-8.994 69.802-5.877 139.356-14.621 208.211-26.92 34.422-6.165 68.663-13.234 102.592-21.435 33.92-8.216 67.543-17.554 100.53-28.52 32.946-10.998 65.383-23.545 95.991-39.04 15.261-7.772 30.075-16.296 43.679-26.038 6.793-4.868 13.281-10.04 19.194-15.589 5.907-5.544 11.239-11.48 15.52-17.746l.067-.096c.023-.034.047-.068.071-.102 3.981-5.64 11.781-6.986 17.421-3.004 5.64 3.982 6.985 11.782 3.003 17.422-5.762 8.163-12.397 15.232-19.382 21.607-6.998 6.371-14.374 12.054-21.935 17.31-15.138 10.496-31.017 19.286-47.17 27.223-32.358 15.78-65.853 28.133-99.697 38.889-33.867 10.708-68.155 19.684-102.65 27.506-34.5 7.805-69.215 14.441-104.056 20.154-69.689 11.395-139.864 19.166-210.189 24.05-59.789 4.141-119.709 6.123-179.594 6.122-10.555 0-21.111-.061-31.663-.183" style="fill:url(#linearGradient313);stroke:none" id="path315"/></g></g></g></g><g id="g317" style="display:inline"><g id="g319"><g id="g325"><g id="g327"><path d="m1613.278 127.832-10.607-20.135c-.646-1.227-2.009-1.899-3.376-1.663l-22.428 3.865c-3.057.527-5.001-3.165-2.838-5.388l15.872-16.31c.967-.994 1.185-2.498.538-3.725l-10.606-20.135c-1.446-2.744 1.465-5.736 4.247-4.364l20.416 10.054c1.244.614 2.742.355 3.709-.638l15.873-16.311c2.163-2.223 5.907-.379 5.463 2.691l-3.254 22.525c-.199 1.373.51 2.716 1.754 3.33l20.416 10.055c2.782 1.371 2.185 5.501-.87 6.027l-22.428 3.866c-1.367.236-2.427 1.325-2.625 2.697l-3.255 22.524c-.254 1.762-1.717 2.747-3.191 2.747-1.094 0-2.194-.543-2.81-1.712" style="fill:url(#linearGradient337);stroke:none" id="path339"/></g></g></g></g><g id="g341" style="display:inline"><g id="g343" clip-path="url(#clipPath347)"><g id="g349" transform="translate(242.5288 115.4502)"><path d="M0 0c6.14 5.08 12.33 7.63 18.56 7.63 6.23 0 11.03-1.351 14.39-4.03C36.3.909 37.99-2.641 37.99-7.051c0-6.139-3.65-9.21-10.94-9.21H-9.2C-9.2-10.5-6.14-5.08 0 0m60.72-53.66c-3.07 0-6.91-1.061-11.51-3.17l-3.17-1.15c-6.33-2.3-15.06-3.451-26.18-3.451-6.33 0-12.66 1.821-18.99 5.471-6.33 3.64-9.5 8.149-9.5 13.52h68.2c7.09 0 13.56 2.83 19.42 8.49 5.85 5.649 8.77 14.389 8.77 26.179 0 11.8-3.26 22.68-9.78 32.661-12.47 18.799-32.04 28.2-58.7 28.2-23.4 0-42.92-7.24-58.55-21.731C-54.91 16.88-62.72-2.44-62.72-26.61c0-19.191 6.04-36.55 18.13-52.08 6.13-8.06 14.72-14.531 25.75-19.43 11.03-4.891 23.64-7.33 37.83-7.33 40.86 0 61.29 8.53 61.29 25.609 0 3.641-1.25 8.051-3.74 13.231-4.41 8.63-9.69 12.95-15.82 12.95" style="fill:#29a6fe;fill-opacity:1;fill-rule:nonzero;stroke:none" id="path351"/></g><g id="g353" transform="translate(461.0688 157.75)"><path d="M0 0c-2.4 2.78-5.42 4.75-9.07 5.899-3.64 1.151-7 1.96-10.07 2.441-3.07.479-6.86.72-11.36.72-4.51 0-9.74-1.63-15.68-4.89-5.95-3.26-9.84-5.851-11.66-7.771-1.82-1.92-3.21-3.549-4.17-4.889 0 3.26-1.05 6.42-3.16 9.5-2.88 4.41-10.07 6.61-21.58 6.61-12.28 0-19.76-2.59-22.45-7.77-1.34-2.68-2.16-5.13-2.44-7.33-.29-2.21-.43-5.52-.43-9.93v-109.34c.38-5.561 2.1-9.69 5.18-12.37 4.02-3.271 10.64-4.89 19.85-4.89 12.08 0 19.56 2.489 22.44 7.48 1.54 2.88 2.45 5.42 2.74 7.62.28 2.21.43 5.519.43 9.93v60.419c0 5.181 2.25 9.591 6.76 13.241 4.5 3.639 9.35 5.469 14.53 5.469s9.35-.769 12.52-2.309c3.16-1.53 6.47-2.3 9.92-2.3 6.91 0 12.18 3.64 15.83 10.939 3.64 7.291 5.47 14 5.47 20.141C3.6-7.24 2.39-2.78 0 0" style="fill:#29a6fe;fill-opacity:1;fill-rule:nonzero;stroke:none" id="path355"/></g><g id="g357" transform="translate(592.4091 154.1494)"><path d="M0 0c-2.3 7.29-10.07 10.94-23.3 10.94L-42 9.21v15.82c0 4.8 3.54 7.2 10.64 7.2h8.06c5.75.38 9.97 2.111 12.66 5.18 3.26 4.03 4.89 10.641 4.89 19.851 0 12.269-2.59 19.659-7.77 22.159-2.88 1.53-5.42 2.44-7.62 2.73-2.21.29-5.52.43-9.93.43-19.95 0-35.2-6-45.75-17.979C-87.37 52.61-92.65 39.23-92.65 24.46V9.21h-9.49c-11.32 0-16.98-7.869-16.98-23.6 0-10.349 1.82-17.36 5.47-21 2.11-1.92 5.66-3.07 10.65-3.45h10.35v-76.25c0-4.42.15-7.769.44-10.069.28-2.301 1.19-4.851 2.73-7.631 1.53-2.779 4.07-4.8 7.62-6.04 3.55-1.25 8.3-1.869 14.25-1.869 5.94 0 10.79.569 14.53 1.729 3.74 1.151 6.52 3.491 8.34 7.05 1.82 3.54 2.74 8.96 2.74 16.25v77.11l18.41-1.15c7.67 0 13.52 1.15 17.55 3.46 2.69 1.53 4.65 4.07 5.9 7.62s1.87 8.3 1.87 14.24C1.73-8.439 1.16-3.64 0 0" style="fill:#29a6fe;fill-opacity:1;fill-rule:nonzero;stroke:none" id="path359"/></g><g id="g361" transform="translate(665.499 115.4502)"><path d="M0 0c6.14 5.08 12.32 7.63 18.56 7.63 6.23 0 11.03-1.351 14.39-4.03C36.3.909 37.98-2.641 37.98-7.051c0-6.139-3.64-9.21-10.93-9.21H-9.21C-9.21-10.5-6.14-5.08 0 0m60.71-53.66c-3.07 0-6.9-1.061-11.51-3.17l-3.16-1.15c-6.33-2.3-15.06-3.451-26.19-3.451-6.33 0-12.66 1.821-18.99 5.471-6.33 3.64-9.49 8.149-9.49 13.52h68.19c7.1 0 13.57 2.83 19.42 8.49 5.85 5.649 8.78 14.389 8.78 26.179 0 11.8-3.26 22.68-9.78 32.661-12.48 18.799-32.04 28.2-58.7 28.2-23.41 0-42.92-7.24-58.56-21.731C-54.91 16.88-62.73-2.44-62.73-26.61c0-19.191 6.05-36.55 18.13-52.08 6.14-8.06 14.72-14.531 25.75-19.43 11.03-4.891 23.64-7.33 37.84-7.33 40.86 0 61.29 8.53 61.29 25.609 0 3.641-1.25 8.051-3.74 13.231-4.42 8.63-9.69 12.95-15.83 12.95" style="fill:#29a6fe;fill-opacity:1;fill-rule:nonzero;stroke:none" id="path363"/></g><g id="g365" transform="translate(874.3989 74.4502)"><path d="M0 0c-3.27 0-7.54-1.78-12.81-5.32-5.28-3.561-10.93-5.33-16.98-5.33-6.04 0-11.75 2.259-17.12 6.759-5.37 4.51-8.05 10.84-8.05 19 0 8.151 2.78 14.531 8.34 19.13 5.56 4.601 11.56 6.901 17.99 6.901 6.42 0 11.36-1.63 14.81-4.89 6.72-4.221 11.9-6.33 15.54-6.33 6.33 0 12.95 5.279 19.86 15.83 4.02 6.14 6.04 11.649 6.04 16.54 0 4.89-2.5 9.26-7.48 13.1-1.92 1.339-4.61 3.16-8.06 5.46l-4.6 2.879C4.21 85.64-.87 87.609-7.77 89.63c-6.91 2.01-14.01 3.019-21.3 3.019-18.03 0-35-6.33-50.92-18.99-7.87-6.139-14.3-14.239-19.28-24.309-4.99-10.08-7.48-21.3-7.48-33.67 0-12.37 2.49-23.691 7.48-33.951C-94.29-28.54-87.86-36.74-79.99-42.87c16.49-12.86 33.66-19.28 51.5-19.28 15.92 0 29.35 3.83 40.28 11.509 10.55 6.33 15.83 13.13 15.83 20.431 0 4.409-2.21 9.39-6.62 14.96C12.75-5.091 5.75 0 0 0" style="fill:#29a6fe;fill-opacity:1;fill-rule:nonzero;stroke:none" id="path367"/></g><g id="g369" transform="translate(1023.7289 161.6299)"><path d="M0 0c-2.88 1.54-5.42 2.45-7.62 2.74-2.21.28-5.47.43-9.79.43-4.31 0-10.69-.39-19.13-1.15v28.19c0 6.72-.48 11.61-1.44 14.68-2.5 7.089-10.26 10.65-23.31 10.65-12.28 0-19.66-2.41-22.15-7.2-1.54-2.49-2.45-4.8-2.74-6.901-.28-2.119-.43-5.379-.43-9.789V2.02l-9.49 1.15c-4.61 0-8.45-1.25-11.51-3.74-1.73-1.54-3.07-4.08-4.03-7.63-.96-3.55-1.44-9.25-1.44-17.12 0-7.87 1.39-13.43 4.17-16.69 2.78-3.261 6.28-4.89 10.51-4.89 4.21 0 8.15.29 11.79.86v-42.58c0-21.49 5.18-36.74 15.54-45.75 10.36-9.02 25.51-13.52 45.46-13.52 4.22 0 7.43.14 9.64.43 2.2.29 4.75 1.1 7.63 2.439 5.36 2.691 8.05 10.081 8.05 22.161 0 10.36-2.2 16.78-6.62 19.28-2.68 1.53-5.22 2.44-7.62 2.73-2.4.289-5.85.43-10.36.43s-7.58 1.149-9.21 3.46c-1.63 2.3-2.44 6.04-2.44 11.22v39.7l18.7-1.15c4.41 0 7.72.15 9.93.44 2.2.28 4.75 1.1 7.62 2.439C4.89-41.62 7.48-34.24 7.48-22.15 7.48-9.88 4.99-2.49 0 0" style="fill:#29a6fe;fill-opacity:1;fill-rule:nonzero;stroke:none" id="path371"/></g><g id="g373" transform="translate(1163.2793 80.3496)"><path d="M0 0c-11.13-10.27-23.601-15.399-37.41-15.399h-27.91V93.37h27.63c14.57 0 27.28-5.229 38.12-15.68C11.27 67.23 16.689 54.24 16.689 38.7 16.689 23.16 11.12 10.26 0 0m35.97 114.23C14.859 134.271-9.601 144.3-37.41 144.3l-53.231.28c-12.279 0-19.759-2.59-22.439-7.76-1.54-2.88-2.45-5.38-2.731-7.49-.29-2.11-.439-5.46-.439-10.07V-40.72c0-8.25 1.159-14.38 3.46-18.41 2.87-4.8 10.16-7.2 21.859-7.2h52.66c29.351 0 54.331 10.46 74.951 31.37 20.62 20.9 30.94 45.99 30.94 75.24 0 29.25-10.56 53.901-31.65 73.95" style="fill:#29a6fe;fill-opacity:1;fill-rule:nonzero;stroke:none" id="path375"/></g><g id="g377" transform="translate(1361.6689 157.75)"><path d="M0 0c-2.4 2.78-5.42 4.75-9.06 5.899-3.65 1.151-7.01 1.96-10.07 2.441-3.07.479-6.86.72-11.37.72-4.51 0-9.74-1.63-15.68-4.89-5.95-3.26-9.83-5.851-11.65-7.771-1.83-1.92-3.22-3.549-4.18-4.889 0 3.26-1.05 6.42-3.16 9.5-2.88 4.41-10.07 6.61-21.58 6.61-12.28 0-19.76-2.59-22.44-7.77-1.35-2.68-2.16-5.13-2.45-7.33-.29-2.21-.43-5.52-.43-9.93v-109.34c.38-5.561 2.11-9.69 5.18-12.37 4.03-3.271 10.64-4.89 19.85-4.89 12.09 0 19.57 2.489 22.44 7.48 1.54 2.88 2.45 5.42 2.74 7.62.29 2.21.43 5.519.43 9.93v60.419c0 5.181 2.25 9.591 6.76 13.241 4.51 3.639 9.35 5.469 14.53 5.469s9.35-.769 12.52-2.309c3.16-1.53 6.47-2.3 9.93-2.3 6.9 0 12.17 3.64 15.82 10.939 3.64 7.291 5.47 14 5.47 20.141C3.6-7.24 2.4-2.78 0 0" style="fill:#29a6fe;fill-opacity:1;fill-rule:nonzero;stroke:none" id="path379"/></g><g id="g381" transform="translate(1430.8691 115.4502)"><path d="M0 0c6.13 5.08 12.319 7.63 18.56 7.63 6.23 0 11.02-1.351 14.379-4.03 3.361-2.691 5.04-6.241 5.04-10.651 0-6.139-3.649-9.21-10.939-9.21H-9.21C-9.21-10.5-6.141-5.08 0 0m60.71-53.66c-3.07 0-6.91-1.061-11.51-3.17l-3.17-1.15c-6.33-2.3-15.06-3.451-26.18-3.451-6.33 0-12.661 1.821-18.991 5.471-6.329 3.64-9.489 8.149-9.489 13.52h68.19c7.089 0 13.57 2.83 19.419 8.49 5.851 5.649 8.781 14.389 8.781 26.179 0 11.8-3.27 22.68-9.79 32.661-12.47 18.799-32.031 28.2-58.69 28.2-23.41 0-42.93-7.24-58.56-21.731C-54.92 16.88-62.73-2.44-62.73-26.61c0-19.191 6.04-36.55 18.129-52.08 6.131-8.06 14.721-14.531 25.75-19.43 11.031-4.891 23.641-7.33 37.841-7.33 40.86 0 61.28 8.53 61.28 25.609 0 3.641-1.24 8.051-3.74 13.231-4.41 8.63-9.68 12.95-15.82 12.95" style="fill:#29a6fe;fill-opacity:1;fill-rule:nonzero;stroke:none" id="path383"/></g><g id="g385" transform="translate(1915.1191 147.9697)"><path d="M0 0c-10.36 11.79-23.21 17.69-38.55 17.69-6.91 0-13.631-1.87-20.15-5.61-6.52-3.74-11.27-7.19-14.24-10.36-2.98-3.159-5.52-6.18-7.621-9.06C-90.16 9.35-104.73 17.69-124.3 17.69c-12.66 0-23.5-6.81-32.511-20.43 0 6.52-1.639 11.511-4.889 14.96-3.27 3.46-10.27 5.18-21.01 5.18-10.74 0-17.55-2.589-20.431-7.77-1.54-2.68-2.439-5.13-2.729-7.33-.29-2.21-.43-5.52-.43-9.93v-101.28c0-4.61.14-7.96.43-10.069.29-2.121 1.099-4.611 2.439-7.481 2.691-5.18 10.071-7.769 22.16-7.769 12.081 0 19.571 2.489 22.441 7.479 1.54 2.88 2.45 5.42 2.74 7.62.279 2.21.43 5.52.43 9.93v50.93c0 16.69 5.75 25.03 17.26 25.03 11.89 0 17.839-8.34 17.839-25.03v-50.35c0-4.42.141-7.73.431-9.93.29-2.21 1.1-4.75 2.449-7.63 2.681-5.37 10.071-8.049 22.151-8.049 12.28 0 19.759 2.589 22.45 7.769 1.53 2.87 2.439 5.36 2.729 7.481.29 2.109.431 5.459.431 10.069v50.35c0 8.06 1.2 14.29 3.6 18.7 2.4 4.41 6.95 6.62 13.67 6.62 11.89 0 17.839-8.34 17.839-25.03v-50.35c0-4.42.141-7.73.431-9.93.29-2.21 1.1-4.75 2.44-7.63 2.69-5.37 10.07-8.049 22.16-8.049 12.27 0 19.66 2.589 22.15 7.769 1.54 2.87 2.449 5.41 2.739 7.62.29 2.2.431 5.51.431 9.93v50.35C15.54-31.32 10.359-11.8 0 0" style="fill:#29a6fe;fill-opacity:1;fill-rule:nonzero;stroke:none" id="path387"/></g><g id="g389" transform="translate(2070.0693 86.0996)"><path d="M0 0c-3.74 6.62-8.4 11.271-13.96 13.96-11.891 5.94-24.171 9.59-36.83 10.931-13.051 1.729-19.561 5.469-19.561 11.219 0 4.22 5.651 6.33 16.97 6.33 7.29 0 14.051-1.44 20.29-4.31 6.231-2.88 10.5-4.319 12.801-4.319 4.409 0 8.729 3.359 12.949 10.069 4.221 6.71 6.33 12.37 6.33 16.98 0 4.6-3.359 8.44-10.069 11.51-14.391 6.521-28.391 9.78-42.011 9.78-41.63 0-62.439-15.16-62.439-45.46 0-10.169 1.82-18.95 5.469-26.33 3.641-7.39 8.241-12.799 13.811-16.259 11.89-7.29 23.88-11.79 35.97-13.521 12.849-1.729 19.269-4.41 19.269-8.059 0-4.601-5.849-6.901-17.55-6.901-6.519 0-13.809 2.34-21.87 7.05-8.049 4.7-14.429 7.05-19.13 7.05-4.7 0-8.109-1.64-10.21-4.89-7.299-10.17-10.939-17.75-10.939-22.74 0-4.989 1.819-8.63 5.47-10.93 17.07-10.74 34.859-16.11 53.37-16.11 18.51 0 33.91 2.971 46.189 8.92C-8.971-62.58-3.74-57.359 0-50.35c3.739 7 5.609 15.491 5.609 25.46C5.609-14.91 3.739-6.62 0 0" style="fill:#29a6fe;fill-opacity:1;fill-rule:nonzero;stroke:none" id="path391"/></g><g id="g393" transform="translate(1685.71 150.502)"><path d="M0 0c-.288 2.205-1.152 4.754-2.593 7.636-1.442 2.881-3.99 4.898-7.636 6.051-3.652 1.152-9.22 1.728-16.712 1.728-14.025 0-21.611-5.38-22.763-16.136-1.347 1.918-3.075 3.89-5.187 5.908-2.116 2.016-5.861 4.177-11.237 6.483-5.38 2.305-11.336 3.457-17.865 3.457-9.068 0-17.738-2.143-26.022-6.384 7.816-5.383 15.49-11.235 22.857-17.884 2.428-2.197 4.821-4.492 7.171-6.883 2.472 3.169 6.265 5.066 10.366 5.066 6.637 0 12.142-4.76 13.089-11.317l2.548-17.635 17.559-3.028c5.654-.973 10.004-5.443 10.824-11.121.821-5.677-2.086-11.196-7.232-13.731l-15.986-7.873 2.548-17.637c.548-3.801-.566-7.632-3.058-10.51-2.525-2.916-6.184-4.588-10.038-4.589-3.568 0-6.917 1.422-9.431 4.005l-12.428 12.77-15.986-7.873c-1.849-.91-3.816-1.372-5.849-1.372-4.584-.001-8.915 2.458-11.303 6.416-2.402 3.979-2.536 8.821-.361 12.952l8.306 15.765-12.429 12.771c-3.709 3.812-4.771 9.437-2.706 14.33.358.848.801 1.64 1.308 2.376-4.341 3.808-8.994 7.471-13.842 10.989-2.312 1.678-4.683 3.312-7.076 4.925-7.591-11.97-11.404-25.259-11.404-39.876 0-20.075 7.103-37.701 21.321-52.873 14.214-15.177 29.629-22.763 46.246-22.763 16.613 0 28.477 5.087 35.585 15.271.576-4.997 2.639-8.788 6.194-11.381 3.553-2.594 10.564-3.89 21.035-3.89 10.467 0 17.045 2.495 19.738 7.492 1.342 2.881 2.161 5.425 2.449 7.636.288 2.206.432 5.519.432 9.94V-9.941C.432-5.524.288-2.211 0 0" style="fill:#29a6fe;fill-opacity:1;fill-rule:nonzero;stroke:none" id="path395"/></g><g id="g397" transform="translate(15.3315 111.9463)"><path d="M0 0c3.992 8.268 9.388 15.72 15.393 22.492 6.015 6.784 12.701 12.877 19.684 18.531 3.797 3.072 7.702 5.989 11.677 8.798v12.071h18.614c12.492 7.476 25.409 14.162 38.543 20.302 9.227 4.319 18.568 8.36 27.987 12.196-15.854 12.195-32.182 18.298-48.983 18.298H21.499c-12.247 0-19.707-2.582-22.385-7.748-1.533-2.87-2.439-5.408-2.727-7.605-.287-2.201-.43-5.502-.43-9.901v-97.767C-2.965-6.785-1.601-3.33 0 0" style="fill:#29a6fe;fill-opacity:1;fill-rule:nonzero;stroke:none" id="path399"/></g><g id="g401" transform="translate(158.7485 194.8086)"><path d="M0 0c-11.53-3.932-22.952-8.149-34.199-12.764-6.924-2.835-13.779-5.827-20.546-8.988 3.806-.972 7.532-2.851 11.176-5.676 5.546-4.304 8.321-10.668 8.321-19.085 0-8.421-2.775-14.735-8.321-18.941-5.552-4.211-11.193-6.314-16.933-6.314h-36.161v26.782c-2.04-1.37-4.061-2.765-6.047-4.204-6.944-5.041-13.586-10.491-19.562-16.557-5.971-6.056-11.329-12.716-15.383-20.089-2.03-3.678-3.75-7.521-5.024-11.511-1.258-3.99-2.087-8.115-2.431-12.297l-.002-.028c-.104-1.257-2.348-45.036-2.348-45.036 0-6.698.574-11.672 1.722-14.923 2.296-7.081 10.138-10.619 23.533-10.619 12.242 0 19.704 2.583 22.385 7.749 1.529 2.87 2.44 5.403 2.727 7.605.287 2.198.43 5.499.43 9.901v32.431h35.873c17.027 0 33.48 6.12 49.363 18.367C-3.584-98.27 2.824-90.278 7.801-80.233c4.974 10.044 7.463 21.282 7.463 33.72 0 12.435-2.489 23.722-7.463 33.866C5.509-7.979 2.899-3.777 0 0" style="fill:#29a6fe;fill-opacity:1;fill-rule:nonzero;stroke:none" id="path403"/></g><g id="g405"><g id="g439"><g clip-path="url(#clipPath411)" opacity=".61" id="g437"><g id="g435"><g id="g433"><g id="g431"><g id="g429"><path d="M54.424 53.875v-14.47c0-5.106-.204-7.697-.37-8.974-.111-.898-.537-2.498-1.925-5.098-.943-1.813-5.643-3.849-15.913-3.849-5.514 0-14.997.722-16.551 5.533-.019.055-.047.111-.065.175-.481 1.379-1.296 4.83-1.296 12.5v5.431c11.417 2.97 23.464 5.894 36.12 8.752" style="fill:url(#linearGradient425);stroke:none" id="path427"/></g></g></g></g></g></g></g><g id="g441"><g id="g475"><g clip-path="url(#clipPath447)" opacity=".61" id="g473"><g id="g471"><g id="g469"><g id="g467"><g id="g465"><path d="M226.482 73.063c0-5.625 2.294-13.655 13.212-19.937 7.429-4.274 15.062-6.448 22.676-6.448 12.111 0 21.502 1.276 28.718 3.894l3.164 1.157c.185.065.37.139.556.222 4.727 2.174 7.308 2.498 8.428 2.498 3.83 0 7.105-4.793 9.187-8.845 2.461-5.116 2.97-8.234 2.97-9.946 0-3.664-1.222-8.382-10.769-12.37-9.262-3.867-23.759-5.828-43.114-5.828-13.092 0-24.814 2.248-34.834 6.698-9.825 4.358-17.523 10.122-22.87 17.144-8.947 11.5-14.203 23.75-15.951 37.22 41.236 6.301 85.904 12.139 133.588 17.458-1.073-3.83-2.775-6.874-5.088-9.103-4.46-4.312-9.122-6.412-14.276-6.412h-68.196c-4.08 0-7.401-3.312-7.401-7.402" style="fill:url(#linearGradient461);stroke:none" id="path463"/></g></g></g></g></g></g></g><g id="g477"><g id="g511"><g clip-path="url(#clipPath483)" opacity=".61" id="g509"><g id="g507"><g id="g505"><g id="g503"><g id="g501"><path d="M392.563 103.317c-.231-1.323-.342-2.673-.342-4.061V38.832c0-5.08-.204-7.68-.37-8.975-.111-.878-.528-2.452-1.851-4.959-1.091-1.72-5.902-3.701-15.987-3.701-9.511 0-13.508 1.934-15.081 3.156-1.434 1.323-2.294 3.664-2.553 6.975v68.409c11.889 1.221 23.953 2.424 36.184 3.58" style="fill:url(#linearGradient497);stroke:none" id="path499"/></g></g></g></g></g></g></g><g id="g513"><g id="g547"><g clip-path="url(#clipPath519)" opacity=".61" id="g545"><g id="g543"><g id="g541"><g id="g539"><g id="g537"><path d="M542.99 115.456V38.545c0-7.957-1.203-11.491-1.915-12.879-.916-1.785-2.1-2.794-3.941-3.358-3.016-.925-7.171-1.397-12.352-1.397-6.338 0-9.909.786-11.787 1.452-2.387.833-3.192 1.897-3.599 2.628-1.332 2.414-1.758 4.033-1.869 4.968-.249 1.989-.379 5.07-.379 9.159v73.821c11.833.871 23.778 1.712 35.842 2.517" style="fill:url(#linearGradient533);stroke:none" id="path535"/></g></g></g></g></g></g></g><g id="g549"><g id="g583"><g clip-path="url(#clipPath555)" opacity=".61" id="g581"><g id="g579"><g id="g577"><g id="g575"><g id="g573"><path d="M649.452 73.063c0-5.625 2.294-13.655 13.202-19.937 7.439-4.274 15.072-6.448 22.686-6.448 12.111 0 21.501 1.276 28.709 3.894l3.173 1.157c.185.065.37.139.546.222 4.737 2.174 7.318 2.498 8.429 2.498 3.839 0 7.114-4.793 9.196-8.845 2.452-5.116 2.97-8.234 2.97-9.946 0-3.664-1.221-8.382-10.779-12.37-9.252-3.867-23.759-5.828-43.105-5.828-13.091 0-24.813 2.248-34.842 6.698-9.826 4.358-17.514 10.122-22.862 17.144-11.194 14.386-16.616 29.939-16.616 47.592 0 11.694 1.906 22.001 5.792 31.049 15.265.852 30.679 1.657 46.25 2.415-.481-.37-.962-.75-1.434-1.147-7.892-6.532-11.889-13.924-11.889-21.955 0-4.089 3.312-7.402 7.402-7.402h36.249c8.863 0 18.337 4.358 18.337 16.608 0 6.319-2.452 11.777-7.087 15.811 12.86.546 25.822 1.074 38.867 1.564 2.147-5.708 3.202-11.704 3.202-18.097 0-9.659-2.203-16.681-6.523-20.863-4.459-4.312-9.132-6.412-14.276-6.412h-68.196c-4.089 0-7.401-3.312-7.401-7.402" style="fill:url(#linearGradient569);stroke:none" id="path571"/></g></g></g></g></g></g></g><g id="g585"><g id="g619"><g clip-path="url(#clipPath591)" opacity=".61" id="g617"><g id="g615"><g id="g613"><g id="g611"><g id="g609"><path d="M894.6 44.29c0-5.569-6.652-10.731-12.231-14.081-.148-.083-.296-.186-.444-.287-9.613-6.744-21.733-10.168-36.027-10.168-16.071 0-31.873 5.968-46.954 17.718-6.929 5.403-12.712 12.804-17.171 22.001-4.478 9.187-6.745 19.521-6.745 30.716 0 11.167 2.267 21.391 6.717 30.374 1.175 2.369 2.442 4.626 3.812 6.763 35.212 1.129 71.036 2.027 107.378 2.693-.777-1.777-1.841-3.683-3.165-5.7-7.374-11.268-12.009-12.49-13.665-12.49-.758 0-3.784.361-11.056 4.858-4.802 4.228-11.287 6.365-19.3 6.365-8.168 0-15.801-2.896-22.703-8.605-7.31-6.051-11.029-14.405-11.029-24.832 0-10.408 3.608-18.707 10.705-24.665 6.707-5.635 14.072-8.493 21.88-8.493 7.513 0 14.609 2.22 21.104 6.587 5.755 3.867 8.234 4.061 8.679 4.061.851 0 5.588-.601 15.256-12.508 4.089-5.172 4.959-8.465 4.959-10.307" style="fill:url(#linearGradient605);stroke:none" id="path607"/></g></g></g></g></g></g></g><g id="g621"><g id="g655"><g clip-path="url(#clipPath627)" opacity=".61" id="g653"><g id="g651"><g id="g649"><g id="g647"><g id="g645"><path d="M1023.229 131.36c-.712-4.394-1.97-6.689-3.117-7.364-2.6-1.194-4.294-1.592-5.265-1.722-1.277-.166-3.821-.36-8.743-.37l-18.476 1.139c-.148.009-.305.009-.453.009-1.879 0-3.692-.712-5.071-2.008-1.489-1.397-2.331-3.349-2.331-5.394V75.941c0-6.809 1.249-11.879 3.812-15.497 3.08-4.357 8.206-6.578 15.238-6.578 4.2 0 7.383-.12 9.483-.38 1.388-.166 3.016-.776 4.839-1.812.139-.074 2.886-1.759 2.886-12.842 0-9.891-2.007-14.488-3.913-15.507-2.628-1.221-4.349-1.628-5.329-1.758-1.286-.166-3.84-.37-8.679-.37-18.022 0-31.687 3.942-40.606 11.704-8.623 7.503-12.999 21.021-12.999 40.162v42.587c0 2.165-.944 4.219-2.591 5.625-1.351 1.158-3.053 1.777-4.811 1.777-.379 0-.768-.028-1.147-.083-3.257-.519-6.837-.778-10.649-.778-2.044 0-3.497.685-4.867 2.286-.508.601-1.498 2.193-2.035 5.958 34.509.527 69.473.833 104.824.925" style="fill:url(#linearGradient641);stroke:none" id="path643"/></g></g></g></g></g></g></g><g id="g657"><g id="g691"><g clip-path="url(#clipPath663)" opacity=".61" id="g689"><g id="g687"><g id="g685"><g id="g683"><g id="g681"><path d="M1223.478 120.692c0-27.487-9.418-50.404-28.801-70.046-19.346-19.623-42.143-29.162-69.686-29.162h-52.652c-9.761 0-14.424 1.897-15.488 3.553-1.12 2.008-2.433 6.171-2.433 14.655v91.677c12.092-.009 24.129-.056 36.128-.12V65.015c0-4.089 3.312-7.402 7.402-7.402h27.913c15.663 0 29.939 5.838 42.42 17.357 12.657 11.667 19.077 26.515 19.077 44.14 0 3.813-.295 7.494-.879 11.047 12.278-.213 24.5-.453 36.657-.721.231-2.859.342-5.773.342-8.744" style="fill:url(#linearGradient677);stroke:none" id="path679"/></g></g></g></g></g></g></g><g id="g693"><g id="g727"><g clip-path="url(#clipPath699)" opacity=".61" id="g725"><g id="g723"><g id="g721"><g id="g719"><g id="g717"><path d="M1352.006 125.55c-2.684-4.182-5.542-4.802-8.05-4.802-2.34 0-4.533.519-6.688 1.564-4.238 2.054-9.382 3.043-15.747 3.043-6.893 0-13.351-2.396-19.189-7.114-6.217-5.024-9.511-11.593-9.511-18.985V38.832c0-5.08-.194-7.68-.37-8.975-.111-.878-.527-2.452-1.85-4.959-1.092-1.72-5.894-3.701-15.988-3.701-9.502 0-13.508 1.934-15.081 3.156-1.433 1.323-2.285 3.664-2.544 6.975v97.294c32.151-.833 63.848-1.86 95.018-3.072" style="fill:url(#linearGradient713);stroke:none" id="path715"/></g></g></g></g></g></g></g><g id="g729"><g id="g763"><g clip-path="url(#clipPath735)" opacity=".61" id="g761"><g id="g759"><g id="g757"><g id="g755"><g id="g753"><path d="M1414.816 73.063c0-5.625 2.295-13.655 13.212-19.937 7.43-4.274 15.063-6.448 22.677-6.448 12.111 0 21.501 1.276 28.718 3.894l3.164 1.157c.185.065.37.139.546.222 4.737 2.174 7.318 2.498 8.429 2.498 3.839 0 7.115-4.793 9.196-8.845 2.452-5.116 2.97-8.234 2.97-9.946 0-3.664-1.221-8.382-10.769-12.37-9.262-3.867-23.769-5.828-43.114-5.828-13.092 0-24.814 2.248-34.834 6.698-9.834 4.358-17.523 10.122-22.87 17.144-11.196 14.386-16.617 29.939-16.617 47.592 0 13.61 2.59 25.323 7.855 35.379 14.803-.638 29.486-1.314 44.039-2.036-.435-.323-.86-.674-1.286-1.026-7.892-6.532-11.889-13.924-11.889-21.955 0-4.089 3.313-7.402 7.402-7.402h36.258c8.864 0 18.328 4.358 18.328 16.608 0 4.237-1.101 8.086-3.229 11.38 12.546-.695 24.972-1.425 37.295-2.194.61-3.201.916-6.494.916-9.908 0-9.659-2.193-16.681-6.523-20.863-4.46-4.312-9.131-6.412-14.276-6.412h-68.195c-4.09 0-7.403-3.312-7.403-7.402" style="fill:url(#linearGradient749);stroke:none" id="path751"/></g></g></g></g></g></g></g><g id="g765"><g id="g799"><g clip-path="url(#clipPath771)" opacity=".61" id="g797"><g id="g795"><g id="g793"><g id="g791"><g id="g789"><path d="M1630.017 33.975c-.028-.037-.056-.083-.083-.121-5.672-8.132-15.313-12.083-29.458-12.083-14.6 0-27.932 6.67-40.784 20.391-12.98 13.851-19.29 29.468-19.29 47.74 0 9.141 1.592 17.588 4.839 25.49 3.553-.232 7.097-.482 10.631-.722-2.193-5.949-.814-12.676 3.7-17.32l13.277-13.637-8.872-16.848c-2.517-4.774-2.6-10.269-.232-15.09 2.368-4.793 6.911-8.197 12.148-9.094.925-.158 1.869-.241 2.803-.241 2.563 0 5.042.582 7.365 1.73l17.088 8.41 13.277-13.646c2.479-2.544 5.625-4.21 9.085-4.812.925-.157 1.869-.24 2.812-.24.574 0 1.138.037 1.694.093" style="fill:url(#linearGradient785);stroke:none" id="path787"/></g></g></g></g></g></g></g><g id="g801"><g id="g835"><g clip-path="url(#clipPath807)" opacity=".61" id="g833"><g id="g831"><g id="g829"><g id="g827"><g id="g825"><path d="M1678.386 104.854V39.405c0-5.079-.204-7.678-.37-8.974-.13-.953-.528-2.627-1.703-5.209-1.333-2.164-6.208-3.451-13.119-3.451-12.629 0-16.071 2.054-16.635 2.461-1.267.925-2.766 2.461-3.202 6.236-.351 3.053-2.552 5.579-5.542 6.328-.01 0-.027.01-.045.01.786.546 1.536 1.156 2.229 1.832 3.85 3.737 5.607 8.946 4.839 14.294l-2.73 18.837 17.08 8.419c6.495 3.192 10.159 10.149 9.123 17.31-.473 3.284-1.888 6.255-3.97 8.623 4.7-.416 9.382-.842 14.045-1.267" style="fill:url(#linearGradient821);stroke:none" id="path823"/></g></g></g></g></g></g></g><g id="g837"><g id="g871"><g clip-path="url(#clipPath843)" opacity=".61" id="g869"><g id="g867"><g id="g865"><g id="g863"><g id="g861"><path d="M1752.475 97.452c-.287-2.341-.435-4.903-.435-7.698V38.832c0-5.08-.203-7.68-.37-8.975-.111-.878-.527-2.452-1.851-4.959-1.091-1.72-5.902-3.701-15.987-3.701-9.89 0-14.525 1.962-15.534 3.683-1.202 2.618-1.61 4.246-1.73 5.162-.167 1.222-.361 3.784-.361 9.076v62.1c12.269-1.222 24.36-2.48 36.268-3.766" style="fill:url(#linearGradient857);stroke:none" id="path859"/></g></g></g></g></g></g></g><g id="g873"><g id="g907"><g clip-path="url(#clipPath879)" opacity=".61" id="g905"><g id="g903"><g id="g901"><g id="g899"><g id="g897"><path d="M1837.787 87.256V39.118c0-5.301-.194-7.854-.361-9.076-.102-.685-.472-2.257-1.934-4.995-.943-1.814-5.643-3.85-15.913-3.85-9.891 0-14.479 2.008-15.506 3.905-1.221 2.636-1.629 4.348-1.758 5.329-.167 1.296-.37 3.895-.37 8.974v50.349c0 .694-.01 1.37-.028 2.026 12.176-1.47 24.139-2.978 35.87-4.524" style="fill:url(#linearGradient893);stroke:none" id="path895"/></g></g></g></g></g></g></g><g id="g909"><g id="g943"><g clip-path="url(#clipPath915)" opacity=".61" id="g941"><g id="g939"><g id="g937"><g id="g935"><g id="g933"><path d="M1923.247 74.775V39.118c0-5.079-.204-7.679-.37-8.973-.12-.898-.546-2.508-1.925-5.098-.056-.093-.101-.177-.139-.269-.638-1.332-4.625-3.581-15.487-3.581-9.89 0-14.479 2.008-15.507 3.905-1.22 2.636-1.628 4.348-1.757 5.329-.166 1.296-.371 3.895-.371 8.974V80.28c12.139-1.795 24-3.635 35.556-5.505" style="fill:url(#linearGradient929);stroke:none" id="path931"/></g></g></g></g></g></g></g><g id="g945"><g id="g979"><g clip-path="url(#clipPath951)" opacity=".61" id="g977"><g id="g975"><g id="g973"><g id="g971"><g id="g969"><path d="M2066.189 45.836c-.703-2.351-1.591-4.534-2.665-6.542-3.025-5.671-7.105-9.77-12.461-12.545-11.186-5.403-25.62-8.142-42.875-8.142-17.013 0-33.649 5.042-49.432 14.979-.962.61-2.008 1.526-2.008 4.663 0 1.202.685 6.069 9.548 18.42.065.093.139.194.194.297.343.527.981 1.508 4.006 1.508 1.888 0 6.394-.786 15.404-6.042 9.161-5.348 17.774-8.058 25.601-8.058 6.847 0 12.037.73 15.867 2.238 4.358 1.721 6.653 4.303 7.846 6.717 10.778-2.461 21.103-4.959 30.975-7.493" style="fill:url(#linearGradient965);stroke:none" id="path967"/></g></g></g></g></g></g></g></g></g></g></svg>